<mxfile host="app.diagrams.net" agent="Mozilla/5.0 (Windows NT 10.0; Win64; x64) AppleWebKit/537.36 (KHTML, like Gecko) Chrome/134.0.0.0 Safari/537.36" version="26.1.3">
  <diagram name="Page-1" id="6KtHSeL4RsSNjI86Iso1">
    <mxGraphModel dx="794" dy="1512" grid="1" gridSize="10" guides="1" tooltips="1" connect="1" arrows="1" fold="1" page="1" pageScale="1" pageWidth="850" pageHeight="1100" math="0" shadow="0">
      <root>
        <mxCell id="0" />
        <mxCell id="1" parent="0" />
        <mxCell id="Hledr1VtGV2OQHqcgLwc-1" value="Orgchart" style="swimlane;startSize=20;horizontal=1;containerType=tree;newEdgeStyle={&quot;edgeStyle&quot;:&quot;elbowEdgeStyle&quot;,&quot;startArrow&quot;:&quot;none&quot;,&quot;endArrow&quot;:&quot;none&quot;};" parent="1" vertex="1">
          <mxGeometry x="50" y="-50" width="510" height="540" as="geometry" />
        </mxCell>
        <UserObject label="Campaign Pricematch Lead" treeRoot="1" id="Hledr1VtGV2OQHqcgLwc-4">
          <mxCell style="whiteSpace=wrap;html=1;align=center;treeFolding=1;treeMoving=1;newEdgeStyle={&quot;edgeStyle&quot;:&quot;elbowEdgeStyle&quot;,&quot;startArrow&quot;:&quot;none&quot;,&quot;endArrow&quot;:&quot;none&quot;};" parent="Hledr1VtGV2OQHqcgLwc-1" vertex="1">
            <mxGeometry x="210" y="20" width="120" height="60" as="geometry" />
          </mxCell>
        </UserObject>
        <mxCell id="Hledr1VtGV2OQHqcgLwc-2" value="" style="edgeStyle=elbowEdgeStyle;elbow=vertical;sourcePerimeterSpacing=0;targetPerimeterSpacing=0;startArrow=none;endArrow=none;rounded=0;curved=0;" parent="Hledr1VtGV2OQHqcgLwc-1" source="Hledr1VtGV2OQHqcgLwc-4" target="Hledr1VtGV2OQHqcgLwc-34" edge="1">
          <mxGeometry relative="1" as="geometry" />
        </mxCell>
        <mxCell id="Hledr1VtGV2OQHqcgLwc-34" value="Relationship Manager" style="whiteSpace=wrap;html=1;align=center;verticalAlign=middle;treeFolding=1;treeMoving=1;newEdgeStyle={&quot;edgeStyle&quot;:&quot;elbowEdgeStyle&quot;,&quot;startArrow&quot;:&quot;none&quot;,&quot;endArrow&quot;:&quot;none&quot;};points=[[0,0,0,0,0],[0,0.25,0,0,0],[0,0.5,0,0,0],[0,0.75,0,0,0],[0,1,0,0,0],[0.25,0,0,0,0],[0.25,1,0,0,0],[0.5,0,0,0,0],[0.5,1,0,0,0],[0.75,0,0,0,0],[0.75,1,0,0,0],[1,0,0,0,0],[1,0.25,0,0,0],[1,0.5,0,0,0],[1,0.75,0,0,0],[1,1,0,0,0]];" parent="Hledr1VtGV2OQHqcgLwc-1" vertex="1">
          <mxGeometry x="55" y="110" width="100" height="60" as="geometry" />
        </mxCell>
        <mxCell id="Hledr1VtGV2OQHqcgLwc-3" value="" style="edgeStyle=elbowEdgeStyle;elbow=vertical;sourcePerimeterSpacing=0;targetPerimeterSpacing=0;startArrow=none;endArrow=none;rounded=0;curved=0;" parent="Hledr1VtGV2OQHqcgLwc-1" source="Hledr1VtGV2OQHqcgLwc-4" target="Hledr1VtGV2OQHqcgLwc-6" edge="1">
          <mxGeometry relative="1" as="geometry" />
        </mxCell>
        <mxCell id="Hledr1VtGV2OQHqcgLwc-6" value="Product Manager" style="whiteSpace=wrap;html=1;align=center;verticalAlign=middle;treeFolding=1;treeMoving=1;newEdgeStyle={&quot;edgeStyle&quot;:&quot;elbowEdgeStyle&quot;,&quot;startArrow&quot;:&quot;none&quot;,&quot;endArrow&quot;:&quot;none&quot;};" parent="Hledr1VtGV2OQHqcgLwc-1" vertex="1">
          <mxGeometry x="385" y="110" width="100" height="60" as="geometry" />
        </mxCell>
        <mxCell id="Hledr1VtGV2OQHqcgLwc-51" value="" style="edgeStyle=elbowEdgeStyle;rounded=0;orthogonalLoop=1;jettySize=auto;html=1;elbow=vertical;startArrow=none;endArrow=none;" parent="Hledr1VtGV2OQHqcgLwc-1" source="Hledr1VtGV2OQHqcgLwc-4" target="Hledr1VtGV2OQHqcgLwc-52" edge="1">
          <mxGeometry relative="1" as="geometry" />
        </mxCell>
        <UserObject label="Business Intelligence" treeRoot="1" id="Hledr1VtGV2OQHqcgLwc-52">
          <mxCell style="whiteSpace=wrap;html=1;align=center;treeFolding=1;treeMoving=1;newEdgeStyle={&quot;edgeStyle&quot;:&quot;elbowEdgeStyle&quot;,&quot;startArrow&quot;:&quot;none&quot;,&quot;endArrow&quot;:&quot;none&quot;};" parent="Hledr1VtGV2OQHqcgLwc-1" vertex="1">
            <mxGeometry x="165" y="110" width="100" height="60" as="geometry" />
          </mxCell>
        </UserObject>
        <mxCell id="Hledr1VtGV2OQHqcgLwc-55" value="" style="edgeStyle=elbowEdgeStyle;rounded=0;orthogonalLoop=1;jettySize=auto;html=1;elbow=vertical;startArrow=none;endArrow=none;" parent="Hledr1VtGV2OQHqcgLwc-1" source="Hledr1VtGV2OQHqcgLwc-4" target="Hledr1VtGV2OQHqcgLwc-56" edge="1">
          <mxGeometry relative="1" as="geometry">
            <mxPoint x="290" y="170" as="sourcePoint" />
          </mxGeometry>
        </mxCell>
        <UserObject label="Project Manager" treeRoot="1" id="Hledr1VtGV2OQHqcgLwc-56">
          <mxCell style="whiteSpace=wrap;html=1;align=center;treeFolding=1;treeMoving=1;newEdgeStyle={&quot;edgeStyle&quot;:&quot;elbowEdgeStyle&quot;,&quot;startArrow&quot;:&quot;none&quot;,&quot;endArrow&quot;:&quot;none&quot;};" parent="Hledr1VtGV2OQHqcgLwc-1" vertex="1">
            <mxGeometry x="275" y="110" width="100" height="60" as="geometry" />
          </mxCell>
        </UserObject>
        <mxCell id="Hledr1VtGV2OQHqcgLwc-59" value="" style="edgeStyle=elbowEdgeStyle;elbow=vertical;sourcePerimeterSpacing=0;targetPerimeterSpacing=0;startArrow=none;endArrow=none;rounded=0;curved=0;" parent="Hledr1VtGV2OQHqcgLwc-1" source="Hledr1VtGV2OQHqcgLwc-34" target="Hledr1VtGV2OQHqcgLwc-60" edge="1">
          <mxGeometry relative="1" as="geometry">
            <mxPoint x="300" y="170" as="sourcePoint" />
          </mxGeometry>
        </mxCell>
        <mxCell id="Hledr1VtGV2OQHqcgLwc-60" value="Sr./Jr. QC Reporting Manager" style="whiteSpace=wrap;html=1;align=center;verticalAlign=middle;treeFolding=1;treeMoving=1;newEdgeStyle={&quot;edgeStyle&quot;:&quot;elbowEdgeStyle&quot;,&quot;startArrow&quot;:&quot;none&quot;,&quot;endArrow&quot;:&quot;none&quot;};points=[[0,0,0,0,0],[0,0.25,0,0,0],[0,0.5,0,0,0],[0,0.75,0,0,0],[0,1,0,0,0],[0.25,0,0,0,0],[0.25,1,0,0,0],[0.5,0,0,0,0],[0.5,1,0,0,0],[0.75,0,0,0,0],[0.75,1,0,0,0],[1,0,0,0,0],[1,0.25,0,0,0],[1,0.5,0,0,0],[1,0.75,0,0,0],[1,1,0,0,0]];" parent="Hledr1VtGV2OQHqcgLwc-1" vertex="1">
          <mxGeometry x="220" y="200" width="100" height="60" as="geometry" />
        </mxCell>
        <mxCell id="Hledr1VtGV2OQHqcgLwc-71" value="" style="edgeStyle=elbowEdgeStyle;elbow=vertical;sourcePerimeterSpacing=0;targetPerimeterSpacing=0;startArrow=none;endArrow=none;rounded=0;curved=0;" parent="Hledr1VtGV2OQHqcgLwc-1" source="Hledr1VtGV2OQHqcgLwc-60" target="Hledr1VtGV2OQHqcgLwc-72" edge="1">
          <mxGeometry relative="1" as="geometry">
            <mxPoint x="300" y="380" as="sourcePoint" />
          </mxGeometry>
        </mxCell>
        <mxCell id="Hledr1VtGV2OQHqcgLwc-72" value="Annotation Analyst" style="whiteSpace=wrap;html=1;align=center;verticalAlign=middle;treeFolding=1;treeMoving=1;newEdgeStyle={&quot;edgeStyle&quot;:&quot;elbowEdgeStyle&quot;,&quot;startArrow&quot;:&quot;none&quot;,&quot;endArrow&quot;:&quot;none&quot;};points=[[0,0,0,0,0],[0,0.25,0,0,0],[0,0.5,0,0,0],[0,0.75,0,0,0],[0,1,0,0,0],[0.25,0,0,0,0],[0.25,1,0,0,0],[0.5,0,0,0,0],[0.5,1,0,0,0],[0.75,0,0,0,0],[0.75,1,0,0,0],[1,0,0,0,0],[1,0.25,0,0,0],[1,0.5,0,0,0],[1,0.75,0,0,0],[1,1,0,0,0]];" parent="Hledr1VtGV2OQHqcgLwc-1" vertex="1">
          <mxGeometry x="165" y="290" width="100" height="60" as="geometry" />
        </mxCell>
        <mxCell id="Hledr1VtGV2OQHqcgLwc-81" value="" style="edgeStyle=elbowEdgeStyle;elbow=vertical;sourcePerimeterSpacing=0;targetPerimeterSpacing=0;startArrow=none;endArrow=none;rounded=0;curved=0;" parent="Hledr1VtGV2OQHqcgLwc-1" source="Hledr1VtGV2OQHqcgLwc-60" target="Hledr1VtGV2OQHqcgLwc-82" edge="1">
          <mxGeometry relative="1" as="geometry">
            <mxPoint x="280" y="280" as="sourcePoint" />
          </mxGeometry>
        </mxCell>
        <mxCell id="Hledr1VtGV2OQHqcgLwc-82" value="Item Matching Analyst" style="whiteSpace=wrap;html=1;align=center;verticalAlign=middle;treeFolding=1;treeMoving=1;newEdgeStyle={&quot;edgeStyle&quot;:&quot;elbowEdgeStyle&quot;,&quot;startArrow&quot;:&quot;none&quot;,&quot;endArrow&quot;:&quot;none&quot;};points=[[0,0,0,0,0],[0,0.25,0,0,0],[0,0.5,0,0,0],[0,0.75,0,0,0],[0,1,0,0,0],[0.25,0,0,0,0],[0.25,1,0,0,0],[0.5,0,0,0,0],[0.5,1,0,0,0],[0.75,0,0,0,0],[0.75,1,0,0,0],[1,0,0,0,0],[1,0.25,0,0,0],[1,0.5,0,0,0],[1,0.75,0,0,0],[1,1,0,0,0]];" parent="Hledr1VtGV2OQHqcgLwc-1" vertex="1">
          <mxGeometry x="275" y="290" width="100" height="60" as="geometry" />
        </mxCell>
        <mxCell id="Hledr1VtGV2OQHqcgLwc-83" value="" style="edgeStyle=elbowEdgeStyle;elbow=vertical;sourcePerimeterSpacing=0;targetPerimeterSpacing=0;startArrow=none;endArrow=none;rounded=0;curved=0;" parent="Hledr1VtGV2OQHqcgLwc-1" source="Hledr1VtGV2OQHqcgLwc-60" target="Hledr1VtGV2OQHqcgLwc-84" edge="1">
          <mxGeometry relative="1" as="geometry">
            <mxPoint x="280" y="280" as="sourcePoint" />
          </mxGeometry>
        </mxCell>
        <mxCell id="Hledr1VtGV2OQHqcgLwc-84" value="SPU Matching Analyst" style="whiteSpace=wrap;html=1;align=center;verticalAlign=middle;treeFolding=1;treeMoving=1;newEdgeStyle={&quot;edgeStyle&quot;:&quot;elbowEdgeStyle&quot;,&quot;startArrow&quot;:&quot;none&quot;,&quot;endArrow&quot;:&quot;none&quot;};points=[[0,0,0,0,0],[0,0.25,0,0,0],[0,0.5,0,0,0],[0,0.75,0,0,0],[0,1,0,0,0],[0.25,0,0,0,0],[0.25,1,0,0,0],[0.5,0,0,0,0],[0.5,1,0,0,0],[0.75,0,0,0,0],[0.75,1,0,0,0],[1,0,0,0,0],[1,0.25,0,0,0],[1,0.5,0,0,0],[1,0.75,0,0,0],[1,1,0,0,0]];" parent="Hledr1VtGV2OQHqcgLwc-1" vertex="1">
          <mxGeometry x="385" y="290" width="100" height="60" as="geometry" />
        </mxCell>
        <mxCell id="Hledr1VtGV2OQHqcgLwc-85" value="" style="edgeStyle=elbowEdgeStyle;elbow=vertical;sourcePerimeterSpacing=0;targetPerimeterSpacing=0;startArrow=none;endArrow=none;rounded=0;curved=0;" parent="Hledr1VtGV2OQHqcgLwc-1" source="Hledr1VtGV2OQHqcgLwc-60" target="Hledr1VtGV2OQHqcgLwc-86" edge="1">
          <mxGeometry relative="1" as="geometry">
            <mxPoint x="280" y="280" as="sourcePoint" />
          </mxGeometry>
        </mxCell>
        <mxCell id="Hledr1VtGV2OQHqcgLwc-86" value="Price Bidding Analyst" style="whiteSpace=wrap;html=1;align=center;verticalAlign=middle;treeFolding=1;treeMoving=1;newEdgeStyle={&quot;edgeStyle&quot;:&quot;elbowEdgeStyle&quot;,&quot;startArrow&quot;:&quot;none&quot;,&quot;endArrow&quot;:&quot;none&quot;};points=[[0,0,0,0,0],[0,0.25,0,0,0],[0,0.5,0,0,0],[0,0.75,0,0,0],[0,1,0,0,0],[0.25,0,0,0,0],[0.25,1,0,0,0],[0.5,0,0,0,0],[0.5,1,0,0,0],[0.75,0,0,0,0],[0.75,1,0,0,0],[1,0,0,0,0],[1,0.25,0,0,0],[1,0.5,0,0,0],[1,0.75,0,0,0],[1,1,0,0,0]];" parent="Hledr1VtGV2OQHqcgLwc-1" vertex="1">
          <mxGeometry x="55" y="290" width="100" height="60" as="geometry" />
        </mxCell>
      </root>
    </mxGraphModel>
  </diagram>
</mxfile>
